<mxfile host="" modified="2021-02-22T10:19:56.749Z" agent="5.0 (Macintosh; Intel Mac OS X 10_15_7) AppleWebKit/537.36 (KHTML, like Gecko) Chrome/84.0.4147.105 Safari/537.36" version="13.7.9" etag="-vE3Su6BKvk-j6J7pQmE" type="embed"><diagram id="jfGJ7QuQ0Vsg-UIZJNoH" name="Page-1"><mxGraphModel dx="1178" dy="940" grid="1" gridSize="10" guides="1" tooltips="1" connect="1" arrows="1" fold="1" page="1" pageScale="1" pageWidth="850" pageHeight="1100" math="0" shadow="0"><root><mxCell id="0"/><mxCell id="1" parent="0"/><mxCell id="4" value="" style="edgeStyle=orthogonalEdgeStyle;rounded=0;orthogonalLoop=1;jettySize=auto;html=1;" edge="1" parent="1" source="2" target="3"><mxGeometry relative="1" as="geometry"/></mxCell><mxCell id="2" value="Client" style="rounded=0;whiteSpace=wrap;html=1;" vertex="1" parent="1"><mxGeometry x="80" y="130" width="120" height="60" as="geometry"/></mxCell><mxCell id="3" value="Context" style="whiteSpace=wrap;html=1;rounded=0;" vertex="1" parent="1"><mxGeometry x="320" y="40" width="120" height="60" as="geometry"/></mxCell><mxCell id="5" value="AbstractExpression" style="swimlane;fontStyle=1;align=center;verticalAlign=top;childLayout=stackLayout;horizontal=1;startSize=26;horizontalStack=0;resizeParent=1;resizeParentMax=0;resizeLast=0;collapsible=1;marginBottom=0;" vertex="1" parent="1"><mxGeometry x="320" y="200" width="160" height="60" as="geometry"/></mxCell><mxCell id="6" value="Interpret(c: Context)" style="text;strokeColor=none;fillColor=none;align=left;verticalAlign=top;spacingLeft=4;spacingRight=4;overflow=hidden;rotatable=0;points=[[0,0.5],[1,0.5]];portConstraint=eastwest;" vertex="1" parent="5"><mxGeometry y="26" width="160" height="26" as="geometry"/></mxCell><mxCell id="7" value="" style="line;strokeWidth=1;fillColor=none;align=left;verticalAlign=middle;spacingTop=-1;spacingLeft=3;spacingRight=3;rotatable=0;labelPosition=right;points=[];portConstraint=eastwest;" vertex="1" parent="5"><mxGeometry y="52" width="160" height="8" as="geometry"/></mxCell><mxCell id="9" value="" style="endArrow=classic;html=1;exitX=1;exitY=0.5;exitDx=0;exitDy=0;entryX=0.5;entryY=0;entryDx=0;entryDy=0;" edge="1" parent="1" source="2" target="5"><mxGeometry width="50" height="50" relative="1" as="geometry"><mxPoint x="400" y="600" as="sourcePoint"/><mxPoint x="450" y="550" as="targetPoint"/><Array as="points"><mxPoint x="400" y="160"/></Array></mxGeometry></mxCell><mxCell id="18" value="" style="endArrow=open;html=1;endSize=12;startArrow=diamondThin;startSize=14;startFill=0;edgeStyle=orthogonalEdgeStyle;align=left;verticalAlign=bottom;exitX=1.005;exitY=0.115;exitDx=0;exitDy=0;exitPerimeter=0;entryX=1.013;entryY=0.115;entryDx=0;entryDy=0;entryPerimeter=0;" edge="1" parent="1" source="15" target="6"><mxGeometry x="-1" y="3" relative="1" as="geometry"><mxPoint x="770" y="330" as="sourcePoint"/><mxPoint x="770" y="220" as="targetPoint"/><Array as="points"><mxPoint x="770" y="389"/><mxPoint x="770" y="229"/></Array></mxGeometry></mxCell><mxCell id="19" value="" style="endArrow=none;html=1;" edge="1" parent="1"><mxGeometry width="50" height="50" relative="1" as="geometry"><mxPoint x="279.58" y="360" as="sourcePoint"/><mxPoint x="279.58" y="320" as="targetPoint"/></mxGeometry></mxCell><mxCell id="11" value="TerminalExpression" style="swimlane;fontStyle=1;align=center;verticalAlign=top;childLayout=stackLayout;horizontal=1;startSize=26;horizontalStack=0;resizeParent=1;resizeParentMax=0;resizeLast=0;collapsible=1;marginBottom=0;" vertex="1" parent="1"><mxGeometry x="200" y="360" width="160" height="60" as="geometry"/></mxCell><mxCell id="12" value="Interpret(c: Context)" style="text;strokeColor=none;fillColor=none;align=left;verticalAlign=top;spacingLeft=4;spacingRight=4;overflow=hidden;rotatable=0;points=[[0,0.5],[1,0.5]];portConstraint=eastwest;" vertex="1" parent="11"><mxGeometry y="26" width="160" height="26" as="geometry"/></mxCell><mxCell id="13" value="" style="line;strokeWidth=1;fillColor=none;align=left;verticalAlign=middle;spacingTop=-1;spacingLeft=3;spacingRight=3;rotatable=0;labelPosition=right;points=[];portConstraint=eastwest;" vertex="1" parent="11"><mxGeometry y="52" width="160" height="8" as="geometry"/></mxCell><mxCell id="14" value="NonterminalExpression" style="swimlane;fontStyle=1;align=center;verticalAlign=top;childLayout=stackLayout;horizontal=1;startSize=26;horizontalStack=0;resizeParent=1;resizeParentMax=0;resizeLast=0;collapsible=1;marginBottom=0;" vertex="1" parent="1"><mxGeometry x="480" y="360" width="200" height="60" as="geometry"/></mxCell><mxCell id="15" value="Interpret(c: Context)" style="text;strokeColor=none;fillColor=none;align=left;verticalAlign=top;spacingLeft=4;spacingRight=4;overflow=hidden;rotatable=0;points=[[0,0.5],[1,0.5]];portConstraint=eastwest;" vertex="1" parent="14"><mxGeometry y="26" width="200" height="26" as="geometry"/></mxCell><mxCell id="16" value="" style="line;strokeWidth=1;fillColor=none;align=left;verticalAlign=middle;spacingTop=-1;spacingLeft=3;spacingRight=3;rotatable=0;labelPosition=right;points=[];portConstraint=eastwest;" vertex="1" parent="14"><mxGeometry y="52" width="200" height="8" as="geometry"/></mxCell><mxCell id="20" value="" style="endArrow=diamondThin;endFill=0;endSize=24;html=1;" edge="1" parent="1"><mxGeometry width="160" relative="1" as="geometry"><mxPoint x="399.58" y="260" as="sourcePoint"/><mxPoint x="400" y="320" as="targetPoint"/></mxGeometry></mxCell><mxCell id="21" value="" style="endArrow=none;html=1;" edge="1" parent="1"><mxGeometry width="50" height="50" relative="1" as="geometry"><mxPoint x="579.58" y="360" as="sourcePoint"/><mxPoint x="579.58" y="320" as="targetPoint"/></mxGeometry></mxCell><mxCell id="22" value="" style="endArrow=none;html=1;" edge="1" parent="1"><mxGeometry width="50" height="50" relative="1" as="geometry"><mxPoint x="400" y="320" as="sourcePoint"/><mxPoint x="280" y="320" as="targetPoint"/></mxGeometry></mxCell><mxCell id="23" value="" style="endArrow=none;html=1;" edge="1" parent="1"><mxGeometry width="50" height="50" relative="1" as="geometry"><mxPoint x="580" y="320" as="sourcePoint"/><mxPoint x="400" y="320" as="targetPoint"/></mxGeometry></mxCell><mxCell id="24" value="" style="ellipse;whiteSpace=wrap;html=1;" vertex="1" parent="1"><mxGeometry x="480" y="410" width="80" height="80" as="geometry"/></mxCell></root></mxGraphModel></diagram></mxfile>